<svg height="479pt" viewBox="1 -10 479.99852 479" width="479pt" xmlns="http://www.w3.org/2000/svg"><path d="m354.359375 277.0625 109.863281-79.832031c6.535156-4.757813 9.269532-13.179688 6.769532-20.867188-2.5-7.691406-9.660157-12.894531-17.746094-12.902343h-135.796875c-8.09375.003906-15.265625-5.207032-17.761719-12.902344l-41.96875-129.160156c-2.496094-7.695313-9.667969-12.910157-17.757812-12.910157-8.09375 0-15.261719 5.214844-17.761719 12.910157l-41.96875 129.160156c-2.496094 7.695312-9.667969 12.90625-17.757813 12.902344h-135.800781c-8.089844 0-15.257813 5.210937-17.757813 12.902343-2.5 7.691407.238282 16.117188 6.78125 20.875l109.863282 79.824219c6.546875 4.75 9.285156 13.179688 6.785156 20.871094l-41.984375 129.167968c-2.503906 7.695313.234375 16.125 6.78125 20.882813s15.410156 4.753906 21.953125-.003906l109.875-79.824219c6.542969-4.757812 15.40625-4.757812 21.949219 0l109.875 79.824219c6.542969 4.757812 15.410156 4.761719 21.953125.003906 6.546875-4.757813 9.285156-13.1875 6.78125-20.882813l-41.953125-129.160156c-2.503907-7.695312.238281-16.125 6.785156-20.878906zm0 0" fill="#55c9f4"/><path d="m478.625 173.863281c-3.476562-11.054687-13.78125-18.53125-25.371094-18.402343h-135.804687c-4.628907.007812-8.730469-2.972657-10.152344-7.375l-41.96875-129.152344c-3.570313-10.992188-13.8125-18.433594-25.367187-18.433594-11.558594 0-21.800782 7.441406-25.371094 18.433594l-41.964844 129.152344c-1.421875 4.402343-5.527344 7.382812-10.152344 7.375h-135.808594c-11.554687.003906-21.789062 7.445312-25.359374 18.433593-3.570313 10.988281.339843 23.023438 9.6875 29.816407l109.863281 79.824218c3.753906 2.703125 5.332031 7.523438 3.902343 11.925782l-41.988281 129.167968c-3.570312 10.992188.339844 23.03125 9.691407 29.820313 9.347656 6.792969 22.007812 6.789062 31.355468-.003907l109.871094-79.785156c3.738281-2.71875 8.804688-2.71875 12.542969 0l109.875 79.816406c9.304687 6.925782 22.050781 6.925782 31.359375 0 9.453125-6.710937 13.390625-18.828124 9.6875-29.816406l-41.992188-129.199218c-1.441406-4.402344.128906-9.226563 3.878906-11.945313l109.863282-79.820313c9.476562-6.707031 13.425781-18.835937 9.722656-29.832031zm-19.105469 16.878907-109.863281 79.855468c-9.367188 6.777344-13.285156 18.828125-9.695312 29.816406l41.976562 129.160157c1.421875 4.398437-.144531 9.214843-3.886719 11.933593-3.738281 2.714844-8.804687 2.71875-12.546875 0l-109.863281-79.824218c-9.34375-6.816406-22.019531-6.816406-31.359375 0l-109.867188 79.824218c-3.742187 2.71875-8.804687 2.714844-12.546874 0-3.742188-2.71875-5.308594-7.535156-3.882813-11.933593l41.976563-129.160157c3.585937-10.988281-.332032-23.039062-9.695313-29.816406l-109.867187-79.824218c-3.742188-2.714844-5.3125-7.53125-3.886719-11.933594 1.429687-4.398438 5.527343-7.378906 10.152343-7.378906h135.808594c11.554688.027343 21.804688-7.40625 25.367188-18.398438l41.96875-129.191406c1.433594-4.394532 5.53125-7.363282 10.152344-7.363282 4.621093 0 8.714843 2.96875 10.152343 7.363282l41.964844 129.191406c3.5625 10.992188 13.816406 18.425781 25.371094 18.398438h135.804687c4.628906 0 8.726563 2.980468 10.152344 7.378906 1.425781 4.402344-.140625 9.21875-3.886719 11.933594zm0 0" fill="#006d95"/></svg>